<svg width="24" height="24" viewBox="0 0 24 24" fill="none" xmlns="http://www.w3.org/2000/svg">
<path d="M13.7678 18.8218C12.5421 20.0474 11.069 20.6602 9.34836 20.6602C7.62773 20.6602 6.15459 20.0474 4.92894 18.8218C3.70329 17.5961 3.09046 16.123 3.09046 14.4023C3.09046 12.6817 3.70329 11.2086 4.92894 9.98293L11.4697 3.44219C12.3536 2.55831 13.4142 2.11636 14.6517 2.11636C15.8891 2.11636 16.9498 2.55831 17.8336 3.44219C18.7175 4.32607 19.1595 5.38673 19.1595 6.62417C19.1595 7.86161 18.7175 8.92227 17.8336 9.80615L11.6465 15.9933C11.1043 16.5354 10.4562 16.8065 9.70191 16.8065C8.94766 16.8065 8.29948 16.5354 7.75737 15.9933C7.21525 15.4512 6.94419 14.803 6.94419 14.0488C6.94419 13.2945 7.21525 12.6464 7.75737 12.1042L14.2981 5.56351L15.7123 6.97772L9.17158 13.5185C9.01837 13.6717 8.94177 13.8484 8.94177 14.0488C8.94177 14.2491 9.01837 14.4259 9.17158 14.5791C9.32479 14.7323 9.50156 14.8089 9.70191 14.8089C9.90226 14.8089 10.079 14.7323 10.2322 14.5791L16.4194 8.39194C16.9026 7.88518 17.1472 7.29298 17.153 6.61533C17.1589 5.93769 16.9144 5.35138 16.4194 4.8564C15.9244 4.36143 15.3352 4.11394 14.6517 4.11394C13.9681 4.11394 13.3789 4.36143 12.8839 4.8564L6.34315 11.3971C5.49462 12.2221 5.07331 13.2209 5.0792 14.3935C5.08509 15.5661 5.50641 16.5708 6.34315 17.4075C7.16811 18.2325 8.16101 18.642 9.32184 18.6361C10.4827 18.6303 11.4932 18.2207 12.3536 17.4075L19.2479 10.5133L20.6621 11.9275L13.7678 18.8218Z" fill="#D6D4D1"/>
</svg>
