<svg width="209" height="95" viewBox="0 0 209 95" fill="none" xmlns="http://www.w3.org/2000/svg">
<g clip-path="url(#clip0_856_2097)">
<path fill-rule="evenodd" clip-rule="evenodd" d="M12.3553 18.9531C11.4676 19.0681 10.7459 19.4343 10.1903 20.0526C9.6348 20.6718 9.34839 21.4051 9.33123 22.2525C9.35414 23.1989 9.67487 24.0092 10.2934 24.6805C10.912 25.3528 11.6909 25.704 12.6302 25.7349C13.5695 25.704 14.3485 25.3528 14.967 24.6805C15.5856 24.0092 15.9063 23.1989 15.9292 22.2525C15.9063 21.4051 15.6085 20.6718 15.0357 20.0526C14.463 19.4343 13.7528 19.0681 12.9051 18.9531H12.3553ZM53.6705 13.6379H59.2599V26.6513H73.831V31.9656H53.6705V13.6379ZM0.442272 13.6379H24.5433V18.9531H20.6028C20.9178 19.5033 21.1355 20.0526 21.2557 20.6028C21.376 21.153 21.4333 21.7023 21.4275 22.2525C21.3588 24.7398 20.4882 26.7981 18.8158 28.4266C17.1434 30.055 15.0816 30.8989 12.6302 30.9581C10.1349 30.8989 8.04634 30.055 6.36438 28.4266C4.68242 26.7981 3.80805 24.7398 3.74127 22.2525C3.74127 21.153 4.01618 20.0526 4.56601 18.9531H0.442272V13.6379ZM4.10782 4.65801H20.8777V9.97235H4.10782V4.65801ZM84.2775 0.442272H89.8678V13.6379H100.497V18.9531H89.8678V31.9656H84.2775V0.442272ZM32.9739 0.442272H38.5643V13.6379H49.1938V18.9531H38.5643V31.9656H32.9739V0.442272Z" fill="#F6E6A5"/>
<path d="M39.0065 0V13.1956H49.6361V19.3954H39.0065V32.4079H32.5317V0H39.0065ZM59.7022 13.1956V26.209H74.2733V32.4079H53.2282V13.1956H59.7022ZM90.31 0V13.1956H100.94V19.3954H90.31V32.4079H83.8352V0H90.31ZM84.7198 31.5234H89.4255V18.5109H100.055V14.0801H89.4255V0.884544H84.7198V31.5234ZM54.1127 31.5234H73.3887V27.0936H58.8177V14.0801H54.1127V31.5234ZM33.4162 31.5234H38.1219V18.5109H48.7516V14.0801H38.1219V0.884544H33.4162V31.5234ZM24.9855 13.1956V19.3954H21.3217C21.4835 19.7634 21.606 20.1342 21.6877 20.5083L21.7108 20.6175C21.8223 21.1631 21.8755 21.7093 21.8698 22.2571L21.8697 22.2647C21.798 24.8587 20.8851 27.029 19.1244 28.7434C17.3677 30.4539 15.1976 31.3384 12.6409 31.4003L12.6303 31.4005L12.6197 31.4003C10.0213 31.3385 7.82415 30.4555 6.05671 28.7443C4.28605 27.03 3.36883 24.8592 3.29916 22.2643L3.29899 22.2584V22.2525C3.29899 21.2936 3.49495 20.3402 3.88007 19.3954H0V13.1956H24.9855ZM0.884544 18.5109H5.28169L4.96157 19.151C4.4397 20.1946 4.18438 21.2259 4.18353 22.2473C4.24881 24.624 5.08027 26.5677 6.672 28.1088C8.26608 29.6522 10.2426 30.4567 12.63 30.5156C14.9713 30.4568 16.9215 29.6538 18.5073 28.1097C20.0903 26.5684 20.9185 24.6236 20.9853 22.2452C20.9905 21.7301 20.9368 21.2149 20.8236 20.6973C20.7141 20.1964 20.5145 19.689 20.219 19.1728L19.84 18.5109H24.101V14.0801H0.884544V18.5109ZM9.86137 19.757C10.4934 19.0536 11.3148 18.6419 12.2985 18.5145L12.3268 18.5109H12.935L12.9646 18.5149C13.8825 18.6394 14.6661 19.0316 15.2994 19.6877L15.3602 19.752L15.4201 19.8182C16.0273 20.503 16.3463 21.3163 16.3713 22.2405L16.3717 22.2518L16.3714 22.2632C16.346 23.3123 15.9866 24.2264 15.2924 24.9799C14.5909 25.7423 13.6987 26.1422 12.6448 26.177L12.6302 26.1774L12.6156 26.177C11.5618 26.1422 10.6696 25.7425 9.96813 24.9802C9.27383 24.2266 8.91447 23.3124 8.88906 22.2632L8.88889 22.2534L8.88906 22.2435C8.90832 21.2924 9.2337 20.4567 9.86137 19.757ZM12.3855 19.3954C11.6066 19.5017 10.9931 19.8208 10.5194 20.3479C10.0382 20.8843 9.79068 21.5123 9.77369 22.2518C9.7954 23.0647 10.0606 23.7498 10.5686 24.3253L10.6187 24.3808L10.6695 24.4348C11.193 24.9785 11.8379 25.2629 12.6302 25.2922C13.4482 25.2619 14.1091 24.9597 14.6415 24.3811L14.6919 24.3253C15.1999 23.7498 15.465 23.0647 15.4867 22.2518C15.4641 21.5165 15.2078 20.89 14.7112 20.3531C14.2157 19.8181 13.6087 19.5009 12.8734 19.3954H12.3855ZM21.32 4.21575V10.4146H3.66559V4.21575H21.32ZM4.55013 9.5301H20.4355V5.10029H4.55013V9.5301Z" fill="#F6E6A5"/>
<path d="M111.192 88.7317H120.905V94.9314H104.717V79.2017H111.192V88.7317Z" fill="#1B5FB8"/>
<path d="M99.0035 61.7585H91.2142V63.0435L99.9203 70.9074L95.6594 75.594L87.9324 68.6031L80.2972 75.5956L75.9416 70.8156L84.5562 63.0433V61.7585H76.4919V55.5587H99.0035V61.7585Z" fill="#1B5FB8"/>
<path fill-rule="evenodd" clip-rule="evenodd" d="M38.9359 57.3915H47.2152V48.9608H53.5981V74.7709H32.5529V48.9608H38.9359V57.3915ZM38.9359 68.5712H47.2152V63.5912H38.9359V68.5712Z" fill="#1B5FB8"/>
<path d="M70.5512 74.7709H64.0764V42.3622H70.5512V74.7709Z" fill="#1B5FB8"/>
<path d="M120.905 55.549H124.721H132.052V43.5121H138.527V55.5162H142.773V43.5121H149.248V55.5162H163.177V61.7408H130.736H120.905V74.7709H114.431V61.7585H103.342V55.5587H114.431V42.3622H120.905V55.549Z" fill="#1B5FB8"/>
<path d="M208.246 68.6809H201.771V36.2721H208.246V68.6809Z" fill="#1B5FB8"/>
<path fill-rule="evenodd" clip-rule="evenodd" d="M195.141 38.5312H190.561C190.707 38.8626 190.821 39.1963 190.902 39.5319L190.927 39.644V39.6442L190.951 39.7533C191.062 40.2992 191.114 40.8453 191.109 41.3925V41.3943L191.109 41.3959C191.073 43.4785 190.474 45.304 189.302 46.8552L189.302 46.8553C188.199 48.3135 186.783 49.375 185.061 50.0364V55.5162H198.807V61.716H166.032V55.5162H178.678V50.039C176.915 49.3786 175.473 48.3175 174.359 46.8567C173.176 45.3054 172.572 43.4792 172.538 41.3956L172.538 41.3919V41.3883C172.538 40.4292 172.734 39.4763 173.12 38.5312H168.323V32.3324H195.141V38.5312ZM181.625 38.5312C180.846 38.6375 180.232 38.9568 179.759 39.4846L179.759 39.4849C179.278 40.0204 179.03 40.6483 179.013 41.3877C179.035 42.2015 179.3 42.8857 179.808 43.4609L179.858 43.5165L179.859 43.517L179.909 43.5707C180.433 44.1143 181.077 44.3988 181.869 44.4281C182.687 44.3978 183.349 44.0955 183.881 43.517L183.881 43.5165L183.931 43.4609C184.439 42.886 184.704 42.2024 184.726 41.3893C184.704 40.6763 184.463 40.0656 183.997 39.5405L183.951 39.4897C183.455 38.9539 182.848 38.6367 182.113 38.5312H181.625Z" fill="#1B5FB8"/>
<path d="M157.771 49.5278H151.296V35.5078H137.733V29.3081H157.771V49.5278Z" fill="#1B5FB8"/>
<path d="M191.475 29.5513H171.989V23.3516H191.475V29.5513Z" fill="#1B5FB8"/>
</g>
<defs>
<clipPath id="clip0_856_2097">
<rect width="208.31" height="95" fill="white"/>
</clipPath>
</defs>
</svg>
