<svg width="1471" height="173" viewBox="0 0 1471 173" fill="none" xmlns="http://www.w3.org/2000/svg">
<path d="M1471 171.316H1429.95L1361.29 67.1307V171.316H1320.24V2.40613H1361.29L1429.95 107.072V2.40613H1471V171.316Z" fill="#FFFDF5"/>
<path d="M1216.03 173C1200.18 173 1185.62 169.311 1172.34 161.932C1159.21 154.553 1148.73 144.287 1140.89 131.134C1133.21 117.82 1129.37 102.902 1129.37 86.3797C1129.37 69.8577 1133.21 55.0199 1140.89 41.8665C1148.73 28.713 1159.21 18.4469 1172.34 11.0682C1185.62 3.68938 1200.18 0 1216.03 0C1231.87 0 1246.35 3.68938 1259.48 11.0682C1272.76 18.4469 1283.16 28.713 1290.68 41.8665C1298.37 55.0199 1302.21 69.8577 1302.21 86.3797C1302.21 102.902 1298.37 117.82 1290.68 131.134C1283 144.287 1272.6 154.553 1259.48 161.932C1246.35 169.311 1231.87 173 1216.03 173ZM1216.03 135.465C1229.47 135.465 1240.19 130.973 1248.19 121.99C1256.36 113.007 1260.44 101.137 1260.44 86.3797C1260.44 71.4618 1256.36 59.5916 1248.19 50.7691C1240.19 41.7863 1229.47 37.2949 1216.03 37.2949C1202.42 37.2949 1191.54 41.7061 1183.38 50.5285C1175.38 59.3509 1171.38 71.3014 1171.38 86.3797C1171.38 101.298 1175.38 113.248 1183.38 122.231C1191.54 131.053 1202.42 135.465 1216.03 135.465Z" fill="#FFFDF5"/>
<path d="M1111.38 2.40613V171.316H1070.33V2.40613H1111.38Z" fill="#FFFDF5"/>
<path d="M988.414 173C976.091 173 965.048 170.995 955.286 166.985C945.524 162.975 937.682 157.039 931.761 149.179C925.999 141.319 922.958 131.855 922.638 120.787H966.329C966.969 127.043 969.129 131.855 972.81 135.224C976.491 138.432 981.292 140.036 987.214 140.036C993.295 140.036 998.096 138.673 1001.62 135.946C1005.14 133.058 1006.9 129.128 1006.9 124.156C1006.9 119.985 1005.46 116.536 1002.58 113.809C999.857 111.083 996.416 108.837 992.255 107.072C988.254 105.308 982.493 103.303 974.971 101.057C964.088 97.6885 955.206 94.3199 948.324 90.9513C941.443 87.5828 935.521 82.6101 930.56 76.0334C925.599 69.4567 923.118 60.8748 923.118 50.2879C923.118 34.5679 928.8 22.2967 940.162 13.4743C951.525 4.49143 966.329 0 984.573 0C1003.14 0 1018.1 4.49143 1029.46 13.4743C1040.83 22.2967 1046.91 34.6481 1047.71 50.5285H1003.3C1002.98 45.0746 1000.98 40.8238 997.296 37.7761C993.615 34.5679 988.894 32.9638 983.133 32.9638C978.172 32.9638 974.171 34.3273 971.13 37.0542C968.089 39.6208 966.569 43.3903 966.569 48.363C966.569 53.8169 969.13 58.0677 974.251 61.1154C979.372 64.1632 987.374 67.4516 998.257 70.9805C1009.14 74.6699 1017.94 78.1989 1024.66 81.5675C1031.54 84.936 1037.47 89.8285 1042.43 96.2448C1047.39 102.661 1049.87 110.922 1049.87 121.028C1049.87 130.652 1047.39 139.395 1042.43 147.255C1037.63 155.115 1030.58 161.37 1021.3 166.022C1012.02 170.674 1001.06 173 988.414 173Z" fill="#FFFDF5"/>
<path d="M902.492 2.40613V171.316H861.442V2.40613H902.492Z" fill="#FFFDF5"/>
<path d="M849.087 2.40613L789.312 171.316H737.94L678.166 2.40613H721.856L763.626 129.93L805.636 2.40613H849.087Z" fill="#FFFDF5"/>
<path d="M623.599 141.48H560.704L550.622 171.316H507.651L568.626 2.40613H616.158L677.132 171.316H633.682L623.599 141.48ZM613.037 109.719L592.152 47.8818L571.507 109.719H613.037Z" fill="#FFFDF5"/>
<path d="M493.739 171.316H452.689L384.033 67.1307V171.316H342.983V2.40613H384.033L452.689 107.072V2.40613H493.739V171.316Z" fill="#FFFDF5"/>
<path d="M275.693 141.48H212.798L202.716 171.316H159.745L220.72 2.40613H268.252L329.226 171.316H285.776L275.693 141.48ZM265.131 109.719L244.246 47.8818L223.601 109.719H265.131Z" fill="#FFFDF5"/>
<path d="M145.955 2.40613V171.316H104.905V101.779H41.0499V171.316H0V2.40613H41.0499V68.5744H104.905V2.40613H145.955Z" fill="#FFFDF5"/>
</svg>
