<svg width="131" height="60" viewBox="0 0 131 60" fill="none" xmlns="http://www.w3.org/2000/svg">
<g clip-path="url(#clip0_718_3987)">
<path fill-rule="evenodd" clip-rule="evenodd" d="M8.12318 12.4908C7.53953 12.5666 7.06504 12.808 6.69976 13.2154C6.33454 13.6235 6.14624 14.1068 6.13495 14.6652C6.15002 15.289 6.36089 15.823 6.76757 16.2654C7.17425 16.7085 7.68637 16.9399 8.30392 16.9603C8.92148 16.9399 9.4336 16.7085 9.84028 16.2654C10.247 15.823 10.4578 15.289 10.4729 14.6652C10.4578 14.1068 10.262 13.6235 9.88547 13.2154C9.50891 12.808 9.04198 12.5666 8.48467 12.4908H8.12318ZM35.2865 8.98791H38.9613V17.5642H48.5413V21.0666H35.2865V8.98791ZM0.290778 8.98791H16.1363V12.4908H13.5456C13.7527 12.8534 13.8958 13.2155 13.9749 13.578C14.0539 13.9406 14.0916 14.3026 14.0879 14.6652C14.0427 16.3045 13.4703 17.661 12.3708 18.7342C11.2712 19.8074 9.91559 20.3636 8.30392 20.4026C6.66335 20.3636 5.29018 19.8074 4.18436 18.7342C3.07853 17.661 2.50366 16.3045 2.45975 14.6652C2.45975 13.9406 2.6405 13.2154 3.00199 12.4908H0.290778V8.98791ZM2.70075 3.06981H13.7264V6.57216H2.70075V3.06981ZM55.4095 0.291474H59.0849V8.98791H66.0735V12.4908H59.0849V21.0666H55.4095V0.291474ZM21.6792 0.291474H25.3546V8.98791H32.3432V12.4908H25.3546V21.0666H21.6792V0.291474Z" fill="#D2B12D"/>
<path d="M25.6454 0V8.69641H32.634V12.7823H25.6454V21.3581H21.3884V0H25.6454ZM39.2521 8.69641V17.2728H48.832V21.3581H34.9957V8.69641H39.2521ZM59.3757 0V8.69641H66.3643V12.7823H59.3757V21.3581H55.1187V0H59.3757ZM55.7003 20.7751H58.7941V12.1994H65.7827V9.27936H58.7941V0.582949H55.7003V20.7751ZM35.5772 20.7751H48.2505V17.8557H38.6705V9.27936H35.5772V20.7751ZM21.97 20.7751H25.0638V12.1994H32.0524V9.27936H25.0638V0.582949H21.97V20.7751ZM16.4271 8.69641V12.7823H14.0182C14.1246 13.0248 14.2052 13.2692 14.2589 13.5158L14.2741 13.5877C14.3474 13.9473 14.3824 14.3072 14.3786 14.6683L14.3785 14.6733C14.3314 16.3828 13.7312 17.8132 12.5736 18.943C11.4187 20.0703 9.99189 20.6533 8.31097 20.694L8.30399 20.6942L8.297 20.694C6.58865 20.6533 5.1441 20.0714 3.98207 18.9436C2.81793 17.8138 2.21489 16.3832 2.16908 14.6731L2.16897 14.6691V14.6653C2.16897 14.0333 2.29781 13.405 2.55101 12.7823H0V8.69641H16.4271ZM0.581556 12.1994H3.47253L3.26205 12.6212C2.91895 13.309 2.75109 13.9887 2.75052 14.6618C2.79344 16.2282 3.3401 17.5091 4.3866 18.5248C5.43466 19.5419 6.73415 20.0721 8.30376 20.111C9.84311 20.0722 11.1253 19.543 12.1679 18.5254C13.2086 17.5096 13.7532 16.2279 13.7971 14.6605C13.8005 14.321 13.7652 13.9814 13.6908 13.6403C13.6188 13.3102 13.4876 12.9758 13.2933 12.6356L13.0441 12.1994H15.8455V9.27936H0.581556V12.1994ZM6.4835 13.0206C6.89905 12.5571 7.43907 12.2858 8.08585 12.2018L8.10442 12.1994H8.5043L8.52378 12.202C9.12724 12.2841 9.64247 12.5426 10.0588 12.975L10.0988 13.0173L10.1382 13.061C10.5374 13.5123 10.7471 14.0483 10.7636 14.6573L10.7638 14.6648L10.7636 14.6723C10.7469 15.3637 10.5106 15.9661 10.0542 16.4627C9.59299 16.9652 9.0064 17.2287 8.31353 17.2516L8.30393 17.2519L8.29433 17.2516C7.6015 17.2287 7.01491 16.9653 6.5537 16.4629C6.09722 15.9663 5.86095 15.3638 5.84424 14.6723L5.84413 14.6658L5.84424 14.6593C5.85691 14.0325 6.07083 13.4817 6.4835 13.0206ZM8.14304 12.7823C7.63093 12.8524 7.22759 13.0627 6.91615 13.41C6.59975 13.7636 6.43703 14.1775 6.42586 14.6648C6.44013 15.2005 6.61449 15.6521 6.94846 16.0313L6.9814 16.0679L7.0148 16.1035C7.35901 16.4618 7.78303 16.6492 8.30393 16.6685C8.84172 16.6486 9.27624 16.4494 9.62629 16.0681L9.6594 16.0313C9.99337 15.6521 10.1677 15.2005 10.1819 14.6648C10.1671 14.1802 9.99862 13.7673 9.67212 13.4135C9.34629 13.0609 8.94726 12.8519 8.4638 12.7823H8.14304ZM14.0172 2.77834V6.86365H2.40999V2.77834H14.0172ZM2.99155 6.2807H13.4356V3.36129H2.99155V6.2807Z" fill="#D2B12D"/>
<path d="M66.5829 55.8693H72.9689V59.9552H62.3259V49.5887H66.5829V55.8693Z" fill="#1350A0"/>
<path d="M58.5696 38.0929H53.4484V38.9398L59.1723 44.1224L56.371 47.211L51.2908 42.6037L46.2709 47.2121L43.4072 44.0619L49.071 38.9397V38.0929H43.769V34.007H58.5696V38.0929Z" fill="#1350A0"/>
<path fill-rule="evenodd" clip-rule="evenodd" d="M19.0773 35.2149H24.5206V29.6588H28.7171V46.6686H14.8807V29.6588H19.0773V35.2149ZM19.0773 42.5827H24.5206V39.3007H19.0773V42.5827Z" fill="#1350A0"/>
<path d="M39.8632 46.6686H35.6062V25.31H39.8632V46.6686Z" fill="#1350A0"/>
<path d="M72.9689 34.0006H75.4777H80.2976V26.0678H84.5546V33.979H87.3467V26.0678H91.6037V33.979H100.761V38.0812H79.4323H72.9689V46.6686H68.7125V38.0929H61.4221V34.007H68.7125V25.31H72.9689V34.0006Z" fill="#1350A0"/>
<path d="M130.392 42.655H126.136V21.2964H130.392V42.655Z" fill="#1350A0"/>
<path fill-rule="evenodd" clip-rule="evenodd" d="M121.777 22.7853H118.766C118.861 23.0036 118.936 23.2235 118.989 23.4447L119.006 23.5186V23.5187L119.022 23.5906C119.095 23.9504 119.129 24.3103 119.126 24.671V24.6721L119.126 24.6732C119.102 26.0457 118.708 27.2488 117.938 28.2711L117.938 28.2711C117.213 29.2322 116.281 29.9317 115.149 30.3676V33.979H124.187V38.0649H102.639V33.979H110.953V30.3693C109.794 29.9341 108.845 29.2347 108.113 28.272C107.336 27.2497 106.939 26.0462 106.916 24.6729L106.916 24.6706V24.6682C106.916 24.0361 107.045 23.4081 107.298 22.7853H104.145V18.6999H121.777V22.7853ZM112.89 22.7853C112.378 22.8553 111.975 23.0657 111.663 23.4136L111.663 23.4137C111.347 23.7667 111.184 24.1805 111.173 24.6678C111.188 25.2041 111.362 25.655 111.696 26.0341L111.729 26.0707L111.729 26.0711L111.762 26.1065C112.106 26.4647 112.53 26.6522 113.051 26.6715C113.589 26.6515 114.024 26.4523 114.373 26.0711L114.374 26.0707L114.407 26.0341C114.741 25.6552 114.915 25.2047 114.929 24.6688C114.915 24.199 114.756 23.7965 114.45 23.4504L114.419 23.4169C114.093 23.0638 113.695 22.8548 113.211 22.7853H112.89Z" fill="#1350A0"/>
<path d="M97.207 30.0324H92.95V20.7927H84.033V16.7068H97.207V30.0324Z" fill="#1350A0"/>
<path d="M119.367 16.8671H106.555V12.7812H119.367V16.8671Z" fill="#1350A0"/>
</g>
<defs>
<clipPath id="clip0_718_3987">
<rect width="130.435" height="60" fill="white"/>
</clipPath>
</defs>
</svg>
