<svg width="16" height="16" viewBox="0 0 16 16" fill="none" xmlns="http://www.w3.org/2000/svg">
<path d="M2.66732 13.3327C2.30065 13.3327 1.98687 13.2022 1.72598 12.9413C1.4651 12.6805 1.33443 12.3665 1.33398 11.9993V3.99935C1.33398 3.63268 1.46465 3.3189 1.72598 3.05802C1.98732 2.79713 2.3011 2.66646 2.66732 2.66602H13.334C13.7007 2.66602 14.0147 2.79668 14.276 3.05802C14.5373 3.31935 14.6678 3.63313 14.6673 3.99935V11.9993C14.6673 12.366 14.5369 12.68 14.276 12.9413C14.0151 13.2027 13.7011 13.3331 13.334 13.3327H2.66732ZM8.00065 8.66602L13.334 5.33268V3.99935L8.00065 7.33268L2.66732 3.99935V5.33268L8.00065 8.66602Z" fill="#70A9F2"/>
</svg>
