<svg width="28" height="28" viewBox="0 0 28 28" fill="none" xmlns="http://www.w3.org/2000/svg">
<path d="M3.5 16.3333V2.33334H24.5V16.3333H3.5ZM14 12.8333C14.9722 12.8333 15.7986 12.4931 16.4792 11.8125C17.1597 11.132 17.5 10.3056 17.5 9.33334C17.5 8.36112 17.1597 7.53473 16.4792 6.85418C15.7986 6.17362 14.9722 5.83334 14 5.83334C13.0278 5.83334 12.2014 6.17362 11.5208 6.85418C10.8403 7.53473 10.5 8.36112 10.5 9.33334C10.5 10.3056 10.8403 11.132 11.5208 11.8125C12.2014 12.4931 13.0278 12.8333 14 12.8333ZM14 25.6667L18.6667 21L17.0333 19.3667L15.1667 21.2333V17.5H12.8333V21.2333L10.9667 19.3667L9.33333 21L14 25.6667ZM5.83333 14H8.16667C8.16667 13.3583 7.93819 12.809 7.48125 12.3521C7.02431 11.8951 6.475 11.6667 5.83333 11.6667V14ZM19.8333 14H22.1667V11.6667C21.525 11.6667 20.9757 11.8951 20.5187 12.3521C20.0618 12.809 19.8333 13.3583 19.8333 14ZM22.1667 7.00001V4.66668H19.8333C19.8333 5.30834 20.0618 5.85765 20.5187 6.31459C20.9757 6.77154 21.525 7.00001 22.1667 7.00001ZM5.83333 7.00001C6.475 7.00001 7.02431 6.77154 7.48125 6.31459C7.93819 5.85765 8.16667 5.30834 8.16667 4.66668H5.83333V7.00001Z" fill="#78756C"/>
</svg>
