<svg width="20" height="20" viewBox="0 0 20 20" fill="none" xmlns="http://www.w3.org/2000/svg">
<path d="M3.33342 15.8346V14.168H5.00008V8.33464C5.00008 7.8763 5.05911 7.42491 5.17717 6.98047C5.29522 6.53602 5.4723 6.11241 5.70842 5.70964L8.33342 8.33464H6.00008L1.16675 3.5013L2.33341 2.33464L17.6667 17.668L16.5001 18.8346L13.4584 15.8346H3.33342ZM15.0001 12.6263L6.83342 4.45964C7.11119 4.23741 7.4098 4.04297 7.72925 3.8763C8.04869 3.70964 8.38897 3.58464 8.75008 3.5013V1.66797H11.2501V3.5013C12.3612 3.77908 13.264 4.36589 13.9584 5.26172C14.6529 6.15755 15.0001 7.18186 15.0001 8.33464V12.6263ZM10.0001 18.3346C9.54175 18.3346 9.14939 18.1714 8.823 17.8451C8.49661 17.5187 8.33342 17.1263 8.33342 16.668H11.6667C11.6667 17.1263 11.5036 17.5187 11.1772 17.8451C10.8508 18.1714 10.4584 18.3346 10.0001 18.3346Z" fill="#44423C"/>
</svg>
