<svg width="24" height="24" viewBox="0 0 24 24" fill="none" xmlns="http://www.w3.org/2000/svg">
<path d="M8 18V6H12.6667C13.7778 6 14.7222 6.38889 15.5 7.16667C16.2778 7.94444 16.6667 8.88889 16.6667 10C16.6667 11.1111 16.2778 12.0556 15.5 12.8333C14.7222 13.6111 13.7778 14 12.6667 14H10.6667V18H8ZM10.6667 11.3333H12.8C13.1667 11.3333 13.4806 11.2028 13.7417 10.9417C14.0028 10.6806 14.1333 10.3667 14.1333 10C14.1333 9.63333 14.0028 9.31944 13.7417 9.05833C13.4806 8.79722 13.1667 8.66667 12.8 8.66667H10.6667V11.3333Z" fill="#FFFFFF"/>
</svg>
