<svg width="24" height="24" viewBox="0 0 24 24" fill="none" xmlns="http://www.w3.org/2000/svg">
<path d="M5.50001 12.4L1.60001 8.5L5.50001 4.6L9.40001 8.5L5.50001 12.4ZM9.00001 22V17C7.98334 16.9167 6.97501 16.7958 5.97501 16.6375C4.97501 16.4792 3.98334 16.2667 3.00001 16L3.50001 14C4.90001 14.3833 6.30417 14.6458 7.71251 14.7875C9.12084 14.9292 10.55 15 12 15C13.45 15 14.8792 14.9292 16.2875 14.7875C17.6958 14.6458 19.1 14.3833 20.5 14L21 16C20.0167 16.2667 19.025 16.4792 18.025 16.6375C17.025 16.7958 16.0167 16.9167 15 17V22H9.00001ZM12 7C11.1667 7 10.4583 6.70833 9.87501 6.125C9.29167 5.54167 9.00001 4.83333 9.00001 4C9.00001 3.16667 9.29167 2.45833 9.87501 1.875C10.4583 1.29167 11.1667 1 12 1C12.8333 1 13.5417 1.29167 14.125 1.875C14.7083 2.45833 15 3.16667 15 4C15 4.83333 14.7083 5.54167 14.125 6.125C13.5417 6.70833 12.8333 7 12 7ZM12 14C11.45 14 10.9792 13.8042 10.5875 13.4125C10.1958 13.0208 10 12.55 10 12C10 11.45 10.1958 10.9792 10.5875 10.5875C10.9792 10.1958 11.45 10 12 10C12.55 10 13.0208 10.1958 13.4125 10.5875C13.8042 10.9792 14 11.45 14 12C14 12.55 13.8042 13.0208 13.4125 13.4125C13.0208 13.8042 12.55 14 12 14ZM17.05 12L15.35 9L17.05 6H20.45L22.15 9L20.45 12H17.05Z" fill="#0E4287"/>
</svg>
