<svg width="24" height="24" viewBox="0 0 24 24" fill="none" xmlns="http://www.w3.org/2000/svg">
<path d="M14.525 14C15.6583 14 16.6208 13.6083 17.4125 12.825C18.2042 12.0417 18.6417 11.1 18.725 10C17.5917 10 16.6208 10.3917 15.8125 11.175C15.0042 11.9583 14.575 12.9 14.525 14ZM14.525 14C14.475 12.9 14.0458 11.9583 13.2375 11.175C12.4292 10.3917 11.4583 10 10.325 10C10.4083 11.1 10.8458 12.0417 11.6375 12.825C12.4292 13.6083 13.3917 14 14.525 14ZM14.525 11C14.8083 11 15.0458 10.9042 15.2375 10.7125C15.4292 10.5208 15.525 10.2833 15.525 10V9.75L15.775 9.85C16.025 9.95 16.2792 9.975 16.5375 9.925C16.7958 9.875 16.9917 9.73333 17.125 9.5C17.275 9.25 17.325 8.98333 17.275 8.7C17.225 8.41667 17.0583 8.21667 16.775 8.1L16.525 8L16.775 7.9C17.0583 7.78333 17.2208 7.57917 17.2625 7.2875C17.3042 6.99583 17.2583 6.73333 17.125 6.5C16.975 6.25 16.775 6.10417 16.525 6.0625C16.275 6.02083 16.025 6.05 15.775 6.15L15.525 6.25V6C15.525 5.71667 15.4292 5.47917 15.2375 5.2875C15.0458 5.09583 14.8083 5 14.525 5C14.2417 5 14.0042 5.09583 13.8125 5.2875C13.6208 5.47917 13.525 5.71667 13.525 6V6.25L13.275 6.15C13.025 6.05 12.775 6.02083 12.525 6.0625C12.275 6.10417 12.075 6.25 11.925 6.5C11.7917 6.73333 11.7458 6.99583 11.7875 7.2875C11.8292 7.57917 11.9917 7.78333 12.275 7.9L12.525 8L12.275 8.1C11.9917 8.21667 11.825 8.41667 11.775 8.7C11.725 8.98333 11.775 9.25 11.925 9.5C12.0583 9.73333 12.2542 9.875 12.5125 9.925C12.7708 9.975 13.025 9.95 13.275 9.85L13.525 9.75V10C13.525 10.2833 13.6208 10.5208 13.8125 10.7125C14.0042 10.9042 14.2417 11 14.525 11ZM14.525 9C14.2417 9 14.0042 8.90417 13.8125 8.7125C13.6208 8.52083 13.525 8.28333 13.525 8C13.525 7.71667 13.6208 7.47917 13.8125 7.2875C14.0042 7.09583 14.2417 7 14.525 7C14.8083 7 15.0458 7.09583 15.2375 7.2875C15.4292 7.47917 15.525 7.71667 15.525 8C15.525 8.28333 15.4292 8.52083 15.2375 8.7125C15.0458 8.90417 14.8083 9 14.525 9ZM3.70001 22.125L1.85001 7.2L5.00001 6.85V19H18.3L18.425 20.325L3.70001 22.125ZM7.00001 17V2H22V17H7.00001Z" fill="#0E4287"/>
</svg>
