<svg width="28" height="28" viewBox="0 0 28 28" fill="none" xmlns="http://www.w3.org/2000/svg">
<path d="M7 25.6666C6.02778 25.6666 5.20139 25.3264 4.52083 24.6458C3.84028 23.9653 3.5 23.1389 3.5 22.1666V18.6666H7V2.33331L8.75 4.08331L10.5 2.33331L12.25 4.08331L14 2.33331L15.75 4.08331L17.5 2.33331L19.25 4.08331L21 2.33331L22.75 4.08331L24.5 2.33331V22.1666C24.5 23.1389 24.1597 23.9653 23.4792 24.6458C22.7986 25.3264 21.9722 25.6666 21 25.6666H7ZM21 23.3333C21.3306 23.3333 21.6076 23.2215 21.8312 22.9979C22.0549 22.7743 22.1667 22.4972 22.1667 22.1666V5.83331H9.33333V18.6666H19.8333V22.1666C19.8333 22.4972 19.9451 22.7743 20.1688 22.9979C20.3924 23.2215 20.6694 23.3333 21 23.3333ZM10.5 10.5V8.16665H17.5V10.5H10.5ZM10.5 14V11.6666H17.5V14H10.5ZM19.8333 10.5C19.5028 10.5 19.2257 10.3882 19.0021 10.1646C18.7785 9.94095 18.6667 9.66387 18.6667 9.33331C18.6667 9.00276 18.7785 8.72567 19.0021 8.50206C19.2257 8.27845 19.5028 8.16665 19.8333 8.16665C20.1639 8.16665 20.441 8.27845 20.6646 8.50206C20.8882 8.72567 21 9.00276 21 9.33331C21 9.66387 20.8882 9.94095 20.6646 10.1646C20.441 10.3882 20.1639 10.5 19.8333 10.5ZM19.8333 14C19.5028 14 19.2257 13.8882 19.0021 13.6646C18.7785 13.441 18.6667 13.1639 18.6667 12.8333C18.6667 12.5028 18.7785 12.2257 19.0021 12.0021C19.2257 11.7785 19.5028 11.6666 19.8333 11.6666C20.1639 11.6666 20.441 11.7785 20.6646 12.0021C20.8882 12.2257 21 12.5028 21 12.8333C21 13.1639 20.8882 13.441 20.6646 13.6646C20.441 13.8882 20.1639 14 19.8333 14Z" fill="#78756C"/>
</svg>
