<svg width="28" height="28" viewBox="0 0 28 28" fill="none" xmlns="http://www.w3.org/2000/svg">
<path d="M10.5 24.5H3.5V14C3.5 12.5417 3.77708 11.1757 4.33125 9.90208C4.88542 8.62847 5.63403 7.52014 6.57708 6.57708C7.52014 5.63403 8.62847 4.88542 9.90208 4.33125C11.1757 3.77708 12.5417 3.5 14 3.5C15.4583 3.5 16.8243 3.77708 18.0979 4.33125C19.3715 4.88542 20.4799 5.63403 21.4229 6.57708C22.366 7.52014 23.1146 8.62847 23.6688 9.90208C24.2229 11.1757 24.5 12.5417 24.5 14V24.5H17.5V15.1667H22.1667V14C22.1667 11.725 21.3743 9.79514 19.7896 8.21042C18.2049 6.62569 16.275 5.83333 14 5.83333C11.725 5.83333 9.79514 6.62569 8.21042 8.21042C6.62569 9.79514 5.83333 11.725 5.83333 14V15.1667H10.5V24.5Z" fill="#78756C"/>
</svg>
